<svg id="svg" version="1.1" xmlns="http://www.w3.org/2000/svg" xmlns:xlink="http://www.w3.org/1999/xlink" width="400" height="426.09853528628497" viewBox="0, 0, 400,426.09853528628497"><g id="svgg"><path id="path0" d="M195.384 44.326 C 130.677 46.890,82.880 103.975,92.061 167.728 C 97.608 206.245,122.944 238.374,159.103 252.745 C 213.964 274.548,276.509 247.974,298.984 193.313 C 300.770 188.969,303.980 178.573,303.827 177.630 C 303.721 176.974,304.064 175.883,304.326 176.045 C 304.412 176.098,304.483 176.095,304.483 176.038 C 304.483 175.980,304.726 174.598,305.023 172.965 C 305.416 170.808,305.578 169.316,305.618 167.510 C 305.651 166.021,305.823 164.170,306.047 162.894 C 307.305 155.729,307.226 146.167,305.830 136.794 C 305.685 135.818,305.515 134.621,305.453 134.132 C 304.270 124.840,299.712 111.693,294.283 101.909 C 288.844 92.106,284.389 85.986,276.126 76.964 C 274.085 74.735,266.172 67.495,267.015 68.627 C 267.157 68.818,266.957 68.647,266.571 68.247 C 265.117 66.742,258.790 62.248,254.416 59.615 C 236.992 49.124,215.405 43.533,195.384 44.326 M222.814 48.653 C 236.089 50.818,253.193 58.223,264.492 66.698 C 266.780 68.415,267.153 68.847,265.113 67.420 C 259.452 63.458,246.618 56.440,245.095 56.474 C 244.701 56.483,245.619 57.002,248.646 58.482 C 253.368 60.791,254.406 61.394,254.044 61.618 C 253.735 61.808,253.435 61.548,257.879 64.932 C 265.220 70.523,266.731 71.549,267.616 71.549 C 268.507 71.549,273.306 75.500,277.413 79.616 C 283.213 85.429,289.002 93.077,292.841 100.000 C 293.796 101.722,293.554 101.504,291.509 98.802 C 289.610 96.291,289.392 96.095,289.391 96.893 L 289.390 97.381 288.954 96.849 C 288.438 96.220,288.404 96.297,288.788 97.226 C 289.736 99.521,292.158 102.184,291.340 100.031 C 290.323 97.357,294.594 103.807,296.756 108.211 C 300.098 115.018,302.288 122.308,303.596 130.983 C 303.993 133.613,303.996 134.962,303.600 132.623 C 303.476 131.891,303.205 130.972,302.997 130.581 L 302.619 129.871 302.561 131.469 C 302.481 133.689,302.782 135.699,303.798 139.725 C 305.035 144.629,305.371 146.408,305.494 148.712 C 305.618 151.023,305.413 151.354,304.931 149.623 C 304.299 147.353,303.753 145.761,303.606 145.761 C 303.234 145.761,303.291 146.576,303.945 150.605 C 305.242 158.585,305.480 160.842,305.223 162.716 C 305.032 164.118,305.129 164.583,303.245 153.218 C 302.363 147.896,301.529 143.142,301.391 142.654 L 301.141 141.767 301.123 142.654 L 301.104 143.542 300.049 141.546 C 298.402 138.430,296.969 136.501,296.510 136.785 C 296.118 137.027,295.022 139.148,294.536 140.604 C 293.551 143.557,293.445 146.446,294.123 151.886 C 294.710 156.589,294.443 163.293,293.649 163.784 C 293.358 163.964,292.939 163.050,291.711 159.553 C 286.965 146.033,281.665 139.663,276.875 141.720 C 274.532 142.726,270.764 143.034,267.707 142.468 C 265.539 142.067,265.126 141.900,264.733 141.267 C 263.320 138.989,261.342 138.475,261.575 140.446 C 261.844 142.715,263.507 144.257,266.809 145.297 C 268.681 145.887,268.463 145.947,269.304 144.607 C 270.159 143.242,270.057 143.259,271.839 144.187 C 276.295 146.505,276.902 149.129,274.223 154.486 C 272.639 157.652,272.074 158.490,271.360 158.725 C 270.375 159.051,269.166 160.451,267.821 162.826 C 265.873 166.265,264.628 167.261,262.653 166.965 L 261.854 166.845 260.299 163.623 C 257.854 158.560,256.635 156.896,249.616 149.046 C 244.217 143.007,244.167 142.891,244.636 137.468 C 244.820 135.334,244.726 133.333,244.428 133.054 C 244.405 133.031,242.388 133.373,239.947 133.813 C 234.123 134.862,234.607 134.871,233.780 133.693 C 231.566 130.537,232.415 128.130,236.503 125.975 C 237.406 125.499,238.461 124.823,238.849 124.472 L 239.553 123.835 243.428 123.657 C 248.728 123.414,248.972 122.969,244.940 120.887 C 241.577 119.151,240.861 118.396,240.844 116.568 C 240.833 115.295,240.642 115.195,239.103 115.655 C 237.066 116.263,236.956 116.712,238.735 117.159 C 240.129 117.510,240.428 117.977,239.603 118.518 C 239.353 118.681,238.862 119.206,238.512 119.683 C 237.224 121.436,235.433 120.464,235.924 118.278 C 236.167 117.200,235.886 116.879,234.961 117.175 C 232.496 117.962,231.951 120.910,233.465 125.255 L 233.836 126.320 233.394 126.704 C 233.150 126.915,232.488 127.255,231.922 127.460 C 229.378 128.380,229.205 128.677,230.002 130.759 C 230.869 133.023,230.839 133.492,229.750 134.633 L 228.874 135.551 228.240 134.842 C 227.415 133.920,226.520 132.406,224.984 129.335 C 223.241 125.848,222.896 125.492,218.553 122.715 C 217.625 122.122,216.591 121.352,216.255 121.004 C 215.494 120.219,215.480 120.220,215.096 121.072 C 214.318 122.797,215.411 124.561,218.731 126.942 C 222.048 129.320,222.966 130.963,222.011 132.810 C 221.446 133.901,220.443 133.270,217.822 130.175 C 214.913 126.740,212.168 124.173,211.549 124.310 C 210.759 124.484,202.789 131.038,202.683 131.601 C 201.896 135.788,197.844 138.034,193.654 136.606 C 191.316 135.809,190.951 134.957,191.089 130.614 C 191.267 124.965,191.197 125.058,195.262 125.134 C 201.527 125.251,202.339 123.749,198.472 119.201 C 196.800 117.235,196.757 117.324,200.533 114.932 C 203.652 112.955,203.820 112.813,204.727 111.386 C 205.869 109.589,208.458 107.591,209.646 107.590 C 209.936 107.590,209.809 106.906,209.233 105.363 C 207.770 101.448,209.140 99.990,210.859 103.633 C 212.571 107.263,213.438 107.815,215.953 106.874 C 218.334 105.983,219.093 104.809,219.964 100.669 C 220.808 96.657,221.506 95.614,223.656 95.154 C 225.261 94.812,224.095 93.919,222.042 93.919 C 221.267 93.919,221.184 93.968,220.553 94.798 C 219.493 96.191,218.989 96.133,217.711 94.468 C 216.495 92.883,216.347 91.106,217.261 89.069 C 217.956 87.521,217.763 85.752,216.900 85.752 C 216.234 85.752,214.717 89.475,214.290 92.159 C 214.026 93.817,214.212 94.279,215.583 95.357 C 216.916 96.406,217.135 96.811,216.649 97.330 C 216.078 97.939,215.875 98.606,215.604 100.755 C 214.968 105.802,212.795 105.888,211.352 100.923 C 210.543 98.138,210.060 97.748,209.225 99.201 C 208.015 101.306,206.540 101.266,205.360 99.098 C 203.800 96.233,204.389 92.826,206.894 90.222 C 208.779 88.263,209.097 87.643,209.319 85.501 C 210.103 77.948,214.077 75.897,221.127 79.408 C 226.106 81.888,227.997 84.394,224.392 83.735 C 221.725 83.248,221.285 83.687,222.868 85.260 C 223.385 85.775,224.124 86.579,224.510 87.048 L 225.211 87.899 226.045 87.368 C 227.516 86.431,228.276 84.704,229.214 80.162 C 230.176 75.507,231.128 74.340,233.120 75.371 C 234.557 76.114,232.808 73.220,229.708 69.725 C 227.845 67.625,227.534 67.196,227.692 66.941 C 228.046 66.368,229.909 67.936,232.362 70.870 C 234.440 73.356,235.202 74.095,236.506 74.887 C 237.430 75.449,237.550 75.396,237.546 74.434 C 237.537 72.517,236.544 71.387,233.431 69.754 C 231.378 68.678,229.561 67.282,229.561 66.783 C 229.561 66.254,230.227 66.447,232.228 67.557 C 233.409 68.211,234.403 68.718,234.437 68.683 C 234.471 68.648,231.231 65.756,227.236 62.256 C 223.242 58.756,219.973 55.809,219.973 55.708 C 219.973 55.200,221.765 55.864,225.794 57.865 C 230.652 60.279,230.605 60.291,227.959 57.315 C 225.702 54.776,225.705 54.884,227.890 55.302 C 228.649 55.447,229.300 55.535,229.338 55.497 C 229.586 55.249,227.595 54.173,224.718 52.999 C 223.736 52.598,223.533 52.449,223.617 52.186 C 223.684 51.972,223.595 51.797,223.350 51.666 C 222.919 51.436,223.033 51.132,223.549 51.132 C 224.095 51.132,223.866 50.754,222.939 50.126 C 221.889 49.415,220.801 49.183,218.411 49.161 C 216.202 49.141,215.216 48.956,216.245 48.755 C 218.939 48.230,220.108 48.212,222.814 48.653 M175.588 51.303 C 176.100 51.459,176.202 51.404,173.813 52.250 C 169.793 53.673,164.277 56.447,164.342 57.013 C 164.358 57.147,164.397 57.427,164.431 57.634 C 164.479 57.929,163.872 58.571,161.647 60.576 C 157.155 64.626,156.162 66.374,157.701 67.523 C 159.728 69.037,161.692 68.557,165.162 65.699 C 167.659 63.643,170.262 62.063,170.262 62.603 C 170.262 62.965,169.757 63.452,168.968 63.850 C 165.503 65.597,160.769 69.767,161.463 70.461 C 161.824 70.822,162.872 70.093,165.869 67.399 C 168.057 65.432,170.087 63.909,170.504 63.920 C 170.615 63.923,170.466 64.135,170.173 64.391 C 169.880 64.647,169.201 65.253,168.664 65.737 L 167.688 66.618 169.260 65.788 C 170.923 64.910,171.200 64.872,170.730 65.590 C 170.372 66.136,170.368 66.223,170.706 66.223 C 171.701 66.223,169.433 71.984,166.099 77.924 C 164.959 79.955,164.900 80.013,164.364 79.637 C 163.483 79.020,162.757 79.652,161.482 82.149 C 159.564 85.903,158.290 85.853,158.330 82.024 C 158.365 78.590,158.615 77.923,160.024 77.511 C 162.482 76.791,165.995 72.967,165.999 71.008 C 166.002 69.652,165.560 69.535,164.380 70.582 C 162.387 72.352,159.273 74.019,153.307 76.512 C 147.513 78.933,144.746 80.499,142.590 82.577 C 141.214 83.904,141.090 84.291,140.967 87.617 C 140.845 90.941,140.775 91.130,138.650 93.919 C 136.875 96.248,136.302 97.648,137.122 97.648 C 137.260 97.648,139.509 95.939,142.120 93.850 L 146.869 90.052 147.729 88.422 C 149.605 84.871,151.911 82.721,153.905 82.664 C 154.826 82.637,154.827 83.269,153.917 86.907 C 153.031 90.450,153.043 90.488,154.806 89.675 C 156.331 88.972,156.493 89.042,156.342 90.333 C 156.198 91.553,153.817 103.043,153.557 103.773 C 153.452 104.066,153.261 105.432,153.132 106.809 C 152.747 110.911,151.681 112.168,149.430 111.172 C 147.347 110.251,147.437 108.617,149.670 106.815 C 151.917 105.002,150.453 104.439,147.321 105.911 L 146.383 106.352 145.642 105.511 C 144.591 104.317,142.854 105.049,143.480 106.423 C 143.687 106.877,143.640 107.042,142.913 108.425 L 142.122 109.931 142.820 110.492 C 144.999 112.241,144.988 112.329,142.431 113.574 C 140.854 114.340,140.597 114.412,139.374 114.418 L 138.038 114.425 138.038 113.640 C 138.038 112.053,136.312 112.325,133.245 114.394 C 130.791 116.049,116.123 128.369,115.654 129.168 C 115.395 129.611,114.919 131.064,114.568 132.487 C 113.751 135.796,112.891 137.556,112.321 137.084 C 111.955 136.780,112.065 136.253,113.031 133.651 C 114.640 129.322,113.823 127.373,110.220 126.945 C 109.213 126.825,107.597 126.628,106.630 126.507 C 104.609 126.254,104.670 126.226,103.606 127.889 C 101.900 130.556,100.444 135.766,100.422 139.281 C 100.404 142.117,100.709 142.304,102.767 140.727 C 105.060 138.971,105.726 139.182,105.726 141.667 C 105.726 142.912,105.747 142.857,103.935 146.274 C 102.944 148.143,102.946 149.402,103.941 151.176 C 105.541 154.030,105.457 153.569,105.289 158.544 C 105.191 161.434,105.829 162.657,106.899 161.634 L 107.439 161.119 107.958 161.698 C 108.515 162.320,108.579 162.700,108.296 163.718 C 107.786 165.555,106.828 164.662,104.752 160.416 C 102.896 156.618,99.180 147.259,97.278 141.589 C 95.857 137.354,97.155 130.167,102.373 113.378 L 102.488 113.005 102.090 113.360 C 101.146 114.203,100.283 116.568,98.627 122.858 C 97.312 127.855,97.323 127.824,97.308 126.409 C 97.161 113.373,110.250 93.172,130.468 75.233 C 131.848 74.009,131.357 74.199,129.421 75.640 C 127.278 77.235,128.303 76.307,132.357 72.980 C 136.671 69.439,141.324 65.789,143.853 63.960 C 146.191 62.269,146.229 62.230,145.206 62.591 C 143.488 63.197,143.970 62.680,146.294 61.423 C 147.221 60.921,147.853 60.550,147.698 60.599 C 147.542 60.647,146.144 61.100,144.591 61.605 C 136.872 64.116,137.062 63.756,145.406 60.057 C 155.459 55.600,168.399 51.046,167.673 52.221 C 167.521 52.467,168.676 52.399,169.825 52.094 C 170.407 51.940,171.443 51.664,172.126 51.482 C 173.411 51.140,174.816 51.067,175.588 51.303 M180.034 54.183 C 178.984 54.672,176.527 55.326,176.361 55.159 C 176.118 54.917,179.714 53.650,180.648 53.649 C 181.103 53.648,181.014 53.725,180.034 54.183 M181.980 54.097 C 180.962 54.566,180.027 54.886,180.027 54.765 C 180.027 54.582,182.376 53.620,182.779 53.638 C 182.876 53.643,182.517 53.849,181.980 54.097 M183.869 55.498 C 182.534 56.756,181.711 57.278,180.826 57.430 L 180.115 57.551 180.816 56.828 C 181.384 56.242,184.419 54.484,184.815 54.512 C 184.867 54.515,184.441 54.959,183.869 55.498 M181.879 55.051 C 181.489 55.482,179.484 56.636,179.126 56.636 C 178.725 56.636,179.662 55.816,180.737 55.225 C 181.913 54.579,182.368 54.510,181.879 55.051 M187.201 55.273 C 189.068 56.312,188.162 57.127,183.221 58.855 C 180.409 59.839,179.479 60.285,178.446 61.149 C 177.437 61.991,176.974 61.911,176.588 60.827 C 176.320 60.076,178.017 58.766,179.258 58.766 C 179.425 58.766,180.126 58.429,180.815 58.018 C 181.589 57.555,182.374 57.233,182.867 57.174 C 183.570 57.091,183.688 57.013,183.844 56.529 C 184.384 54.859,185.624 54.395,187.201 55.273 M173.291 56.060 C 170.349 58.083,169.318 59.105,169.870 59.451 C 170.316 59.731,163.883 64.857,161.576 66.059 C 160.553 66.592,159.439 65.992,160.231 65.335 C 160.593 65.035,160.565 64.742,160.139 64.356 L 159.781 64.032 160.184 63.602 C 160.405 63.365,161.884 62.297,163.471 61.229 C 166.487 59.197,166.696 59.018,165.823 59.210 C 164.290 59.547,166.293 58.165,168.930 57.067 C 172.767 55.470,174.848 54.989,173.291 56.060 M176.209 56.103 C 175.822 56.531,175.956 56.552,176.679 56.179 C 177.501 55.753,177.472 55.991,176.615 56.693 C 174.838 58.149,173.315 58.686,172.850 58.022 C 172.481 57.495,172.778 57.178,174.399 56.367 C 175.846 55.643,176.744 55.512,176.209 56.103 M214.672 58.544 C 216.121 60.051,216.410 60.719,215.615 60.719 C 214.576 60.719,213.278 59.606,213.509 58.914 C 213.586 58.686,213.628 58.320,213.602 58.100 C 213.534 57.509,213.771 57.607,214.672 58.544 M188.965 58.411 C 189.702 59.058,189.860 59.067,190.534 58.500 C 191.235 57.910,192.389 57.905,193.636 58.485 C 194.936 59.091,195.125 60.186,193.930 60.186 C 193.276 60.186,192.810 60.507,192.810 60.956 C 192.810 61.820,193.571 62.023,194.558 61.421 C 194.994 61.155,195.212 61.109,195.382 61.250 C 195.509 61.355,195.954 61.500,196.372 61.571 C 197.480 61.760,197.427 61.997,195.933 63.532 C 194.508 64.996,194.369 65.292,194.940 65.649 C 195.440 65.961,195.382 66.306,194.746 66.804 C 194.328 67.131,194.116 67.526,193.858 68.458 C 193.671 69.131,193.259 70.042,192.942 70.482 C 192.412 71.218,192.369 71.378,192.412 72.467 C 192.492 74.515,189.525 78.483,187.729 78.730 C 186.613 78.884,186.516 78.951,186.255 79.751 C 186.138 80.113,185.773 80.644,185.444 80.933 C 184.844 81.460,184.577 81.549,182.978 81.760 C 181.823 81.913,181.360 82.399,181.103 83.729 C 180.643 86.117,179.941 86.724,177.231 87.078 C 174.943 87.377,174.457 87.633,174.091 88.734 C 173.743 89.783,172.768 90.777,171.682 91.190 C 170.916 91.482,167.486 91.604,167.082 91.355 C 166.892 91.237,169.533 83.761,170.347 82.113 C 170.710 81.380,171.619 80.105,172.564 79.006 C 177.601 73.148,181.172 65.158,178.753 65.158 C 177.804 65.158,178.662 63.297,180.554 61.249 L 181.536 60.187 184.731 59.049 C 188.520 57.701,188.210 57.747,188.965 58.411 M177.091 58.722 C 176.820 59.088,176.131 59.830,175.561 60.370 C 174.448 61.424,174.295 61.879,174.878 62.406 C 175.643 63.098,174.241 64.855,173.309 64.373 C 171.238 63.303,172.451 61.073,176.396 58.694 C 177.698 57.908,177.692 57.908,177.091 58.722 M213.449 60.399 C 213.786 60.789,213.862 61.252,213.589 61.252 C 213.387 61.252,212.740 60.590,212.487 60.125 C 212.240 59.671,213.009 59.890,213.449 60.399 M170.809 61.501 C 170.695 61.637,170.387 61.804,170.123 61.870 C 169.860 61.936,168.861 62.433,167.904 62.975 C 166.037 64.032,165.571 64.122,166.658 63.215 C 167.986 62.107,171.516 60.649,170.809 61.501 M221.814 62.645 C 221.977 62.826,222.631 64.198,223.266 65.695 C 224.962 69.692,225.747 71.075,226.952 72.192 L 227.983 73.147 226.952 73.145 C 224.744 73.141,223.778 72.268,222.201 68.850 C 220.786 65.785,220.499 61.193,221.814 62.645 M207.657 63.477 C 208.134 63.955,208.232 64.802,207.809 64.802 C 207.615 64.802,207.713 65.055,208.164 65.710 C 208.940 66.838,208.947 67.073,208.211 67.144 C 207.661 67.197,207.634 67.234,207.634 67.943 C 207.634 69.981,204.998 68.276,204.334 65.808 C 203.750 63.641,206.142 61.963,207.657 63.477 M268.265 71.258 C 271.243 73.245,273.412 74.936,275.011 76.516 L 276.698 78.184 274.390 76.268 C 273.120 75.214,270.823 73.430,269.285 72.304 C 267.747 71.177,266.489 70.222,266.489 70.182 C 266.489 70.085,266.681 70.201,268.265 71.258 M156.159 77.399 C 156.120 78.993,155.451 79.860,154.834 79.117 C 154.696 78.950,154.387 78.900,153.859 78.960 C 152.415 79.122,152.842 78.221,154.844 76.885 C 156.226 75.962,156.193 75.949,156.159 77.399 M187.527 86.826 C 188.232 87.029,188.538 87.030,189.392 86.834 C 191.880 86.261,192.180 86.451,191.759 88.330 C 190.803 92.604,183.759 93.406,183.756 89.241 C 183.754 86.934,185.039 86.111,187.527 86.826 M198.270 99.112 C 199.405 100.325,199.946 102.322,199.386 103.227 L 199.039 103.789 199.744 105.113 C 201.335 108.098,202.364 110.218,202.661 111.123 L 202.975 112.081 202.554 112.399 C 201.601 113.118,197.732 114.336,196.403 114.336 C 195.290 114.336,195.299 114.081,196.502 111.538 C 198.065 108.231,198.080 107.329,196.617 104.618 C 196.183 103.813,195.828 102.989,195.828 102.786 C 195.828 102.228,195.499 101.731,195.130 101.731 C 194.675 101.731,194.547 101.287,194.768 100.469 C 195.075 99.328,196.183 98.865,196.183 99.877 C 196.183 100.457,196.496 100.427,196.754 99.822 C 197.240 98.681,197.676 98.477,198.270 99.112 M195.640 105.449 C 196.090 105.899,196.249 106.802,196.142 108.301 C 195.988 110.442,195.067 111.332,192.994 111.342 C 191.024 111.351,190.614 110.729,191.639 109.287 L 192.244 108.436 191.966 107.683 C 191.629 106.775,191.744 106.396,192.403 106.242 C 192.675 106.179,192.993 106.009,193.108 105.865 C 193.640 105.200,195.144 104.953,195.640 105.449 M212.307 127.361 C 212.356 127.774,212.301 127.830,211.838 127.830 C 211.239 127.830,210.908 127.117,211.292 126.654 C 211.592 126.292,212.232 126.738,212.307 127.361 M213.094 129.595 C 213.792 130.580,213.546 131.717,212.515 132.269 C 211.569 132.775,210.558 130.188,211.318 129.210 C 211.835 128.546,212.444 128.678,213.094 129.595 M206.028 131.054 C 206.546 131.290,206.601 131.661,206.204 132.229 C 205.694 132.956,204.527 132.487,204.527 131.554 C 204.527 130.902,205.202 130.677,206.028 131.054 M242.530 134.847 C 243.187 135.187,243.189 135.445,242.540 136.067 C 241.874 136.706,241.267 136.642,241.073 135.913 C 240.792 134.856,241.519 134.324,242.530 134.847 M214.159 135.488 C 215.352 135.788,215.666 137.735,215.138 141.574 C 215.043 142.265,218.971 144.134,221.616 144.658 C 224.017 145.132,225.498 144.528,226.509 142.661 C 227.800 140.278,231.579 139.480,237.550 140.330 C 243.129 141.124,243.655 141.506,244.317 145.257 C 244.792 147.945,244.961 148.207,251.650 156.591 C 258.447 165.111,260.704 168.296,260.908 169.653 C 261.090 170.872,261.470 171.110,263.024 170.982 C 264.063 170.896,264.825 170.264,266.642 167.977 C 268.757 165.317,270.565 164.857,270.569 166.977 C 270.576 171.155,266.973 178.329,260.984 186.063 C 255.993 192.509,254.621 196.187,255.553 200.621 C 256.530 205.271,255.449 208.243,252.075 210.179 C 250.370 211.157,249.821 211.906,247.239 216.778 C 245.667 219.743,245.221 220.219,243.336 220.938 C 241.809 221.521,241.723 221.594,241.549 222.459 C 240.432 228.011,233.867 232.136,224.461 233.195 L 223.534 233.300 222.905 232.050 C 218.323 222.952,216.891 214.556,219.076 209.601 C 220.467 206.447,220.595 205.945,220.595 203.640 C 220.595 200.676,220.447 200.372,217.572 197.426 C 214.100 193.869,213.916 193.248,215.388 190.058 C 216.625 187.379,216.636 186.599,215.455 185.562 C 214.652 184.857,214.018 184.744,212.732 185.077 C 210.595 185.630,209.861 185.402,208.796 183.855 C 207.789 182.392,206.675 182.493,196.880 184.937 C 193.900 185.680,192.710 185.906,192.239 185.818 C 190.470 185.486,181.398 176.810,179.397 173.535 L 178.752 172.481 178.841 170.528 C 178.907 169.064,179.077 168.042,179.520 166.445 C 180.369 163.383,180.194 161.738,178.889 160.513 C 177.559 159.263,181.366 153.929,187.456 148.509 L 189.294 146.874 189.323 145.980 C 189.484 141.148,207.088 133.711,214.159 135.488 M233.688 135.939 C 235.426 136.063,235.796 136.430,234.665 136.907 C 233.887 137.235,231.137 137.235,230.742 136.907 C 230.056 136.338,230.628 135.558,231.602 135.733 C 231.895 135.785,232.834 135.878,233.688 135.939 M110.075 141.596 C 111.629 142.405,115.706 148.006,115.047 148.427 C 114.177 148.981,113.065 148.114,111.555 145.702 C 110.469 143.967,109.544 142.936,108.665 142.482 C 107.739 142.003,108.079 141.032,109.095 141.250 C 109.390 141.314,109.831 141.469,110.075 141.596 M111.838 149.749 C 112.571 150.128,112.786 150.890,112.334 151.507 C 111.893 152.111,110.963 151.190,110.963 150.149 C 110.963 149.447,111.118 149.377,111.838 149.749 M118.188 150.514 C 119.488 151.537,120.201 153.682,119.174 153.482 C 118.808 153.411,117.949 153.363,117.266 153.375 C 114.183 153.432,113.949 151.484,116.911 150.419 C 117.642 150.156,117.743 150.164,118.188 150.514 M296.151 160.342 C 296.465 160.930,296.555 163.348,296.281 163.856 C 295.713 164.911,295.254 164.022,295.252 161.861 C 295.250 160.188,295.680 159.463,296.151 160.342 M303.505 161.429 C 304.528 163.683,304.927 169.633,304.306 173.369 L 304.040 174.967 303.941 171.150 C 303.852 167.777,303.772 166.989,303.249 164.380 C 302.520 160.741,302.628 159.497,303.505 161.429 M116.482 163.987 C 121.128 167.054,122.208 167.599,123.641 167.599 C 125.328 167.599,125.851 168.193,126.593 170.951 C 127.046 172.634,127.367 173.076,129.410 174.820 C 130.792 176.001,131.076 176.113,131.563 175.672 C 132.385 174.928,134.958 179.404,135.563 182.628 C 136.423 187.221,138.547 188.889,147.495 191.995 C 153.065 193.928,155.560 195.216,155.883 196.325 C 156.669 199.026,156.314 200.930,154.513 203.661 C 152.972 205.999,152.806 206.602,152.885 209.587 C 153.086 217.226,153.035 217.470,151.078 218.155 C 145.837 219.990,145.860 219.965,146.670 223.170 C 147.226 225.368,147.100 228.036,146.370 229.496 C 145.797 230.642,145.577 230.714,143.719 230.362 L 143.009 230.228 144.579 231.822 L 146.148 233.417 145.311 233.511 C 144.112 233.646,143.799 234.420,144.509 235.497 C 144.904 236.095,144.850 236.314,144.341 236.181 C 143.829 236.047,143.821 236.031,145.717 238.990 L 147.448 241.692 152.655 245.553 C 155.519 247.677,157.916 249.472,157.981 249.543 C 158.314 249.904,156.307 249.333,154.906 248.669 C 150.267 246.469,146.903 244.047,143.009 240.105 C 140.964 238.033,139.531 236.729,139.028 236.480 C 135.495 234.730,127.313 221.374,123.485 211.109 C 121.992 207.107,121.608 206.498,119.088 204.136 C 114.761 200.081,111.264 193.913,107.681 184.015 L 107.054 182.282 108.206 174.364 C 109.595 164.822,109.462 165.351,110.741 164.275 C 112.206 163.043,112.739 162.457,112.739 162.076 C 112.739 161.540,112.897 161.621,116.482 163.987 M266.683 201.894 C 268.036 204.423,258.168 219.310,255.571 218.658 C 253.967 218.255,254.435 215.708,256.554 213.308 C 257.663 212.051,257.738 211.825,257.411 210.732 C 257.047 209.518,259.483 206.835,260.949 206.835 C 261.554 206.835,262.496 205.808,263.380 204.186 C 264.661 201.833,266.111 200.827,266.683 201.894 " stroke="none" fill="#048484" fill-rule="evenodd"></path><path id="path1" d="M116.112 6.323 C 113.472 8.223,108.266 10.997,99.157 15.357 C 86.780 21.282,82.138 23.898,77.651 27.477 C 71.831 32.119,69.700 37.156,71.425 42.192 L 71.921 43.638 73.644 43.761 C 82.856 44.417,88.226 40.702,99.306 26.010 C 107.106 15.668,110.847 11.299,115.479 7.128 C 116.975 5.781,117.117 5.600,116.112 6.323 M286.273 8.191 C 291.033 12.762,294.000 16.274,301.328 26.010 C 312.327 40.623,317.842 44.438,327.000 43.762 L 328.656 43.640 328.989 42.862 C 330.619 39.061,329.850 34.956,326.796 31.158 C 323.487 27.042,318.177 23.551,306.534 17.837 C 292.501 10.951,290.810 10.102,288.740 8.906 C 287.551 8.220,285.954 7.244,285.190 6.738 L 283.802 5.819 286.273 8.191 M67.022 24.805 C 51.597 37.893,46.604 49.557,51.836 60.275 C 53.290 63.255,52.914 63.325,57.058 59.304 C 62.898 53.636,64.187 50.663,64.719 41.633 C 65.130 34.648,65.647 31.227,66.996 26.542 C 67.706 24.081,67.703 24.227,67.022 24.805 M333.067 24.407 C 333.067 24.467,333.346 25.492,333.686 26.684 C 334.976 31.195,335.584 35.232,335.911 41.456 C 336.417 51.091,338.404 55.060,345.940 61.491 C 347.663 62.961,347.401 63.056,348.675 60.497 C 352.711 52.389,351.122 44.223,343.710 34.976 C 341.389 32.080,333.067 23.817,333.067 24.407 M45.983 48.170 C 31.268 65.919,28.514 79.968,37.694 90.457 L 38.316 91.167 38.950 90.457 C 46.818 81.641,48.483 76.568,47.192 65.335 C 46.658 60.690,46.616 52.838,47.105 49.117 C 47.283 47.765,47.403 46.637,47.371 46.611 C 47.340 46.585,46.715 47.286,45.983 48.170 M353.199 46.826 C 354.011 49.513,354.123 59.007,353.421 65.513 C 352.253 76.332,353.497 80.522,360.352 88.859 C 362.402 91.354,362.252 91.305,363.416 89.849 C 371.920 79.211,369.079 65.471,354.851 48.424 C 353.215 46.463,353.038 46.292,353.199 46.826 M88.771 49.078 C 85.574 50.741,83.136 51.155,76.854 51.101 C 69.368 51.037,67.159 51.993,61.429 57.779 C 59.135 60.096,59.153 59.861,61.201 60.720 C 67.613 63.408,73.691 62.677,79.426 58.527 C 81.977 56.681,90.382 48.617,89.716 48.655 C 89.635 48.659,89.210 48.850,88.771 49.078 M313.029 50.981 C 323.630 62.256,330.667 64.696,340.201 60.403 L 341.319 59.900 339.013 57.579 C 333.328 51.856,331.393 51.065,323.036 51.046 C 316.775 51.032,315.741 50.867,312.544 49.369 C 311.696 48.971,310.965 48.646,310.918 48.646 C 310.872 48.646,311.822 49.697,313.029 50.981 M74.656 70.161 C 71.095 72.598,68.184 73.554,62.268 74.227 C 54.488 75.113,50.893 77.552,45.481 85.612 L 44.561 86.981 45.317 87.187 C 55.839 90.049,63.016 87.118,70.778 76.787 C 72.242 74.838,76.031 69.398,75.958 69.350 C 75.925 69.328,75.340 69.693,74.656 70.161 M325.536 70.683 C 330.106 77.279,332.092 79.801,334.684 82.299 C 340.293 87.704,346.273 89.317,354.017 87.514 C 356.248 86.994,356.210 87.136,354.710 84.953 C 349.473 77.328,346.124 75.132,338.355 74.228 C 332.508 73.547,329.721 72.649,326.232 70.319 C 325.548 69.862,324.880 69.423,324.747 69.342 C 324.614 69.261,324.969 69.865,325.536 70.683 M26.948 77.802 C 15.210 98.685,14.639 113.283,25.165 123.402 C 27.456 125.605,27.319 125.533,27.764 124.766 C 35.063 112.167,35.694 107.966,32.160 95.499 C 30.768 90.590,30.181 88.097,29.656 84.871 C 29.330 82.865,29.210 81.676,28.800 76.382 L 28.673 74.734 26.948 77.802 M371.883 75.322 C 371.824 75.542,371.774 76.360,371.771 77.142 C 371.757 81.772,370.531 88.663,368.484 95.619 C 365.033 107.345,365.799 112.867,372.409 123.896 C 373.482 125.687,373.164 125.762,375.831 123.080 C 386.115 112.737,385.335 98.111,373.382 77.186 C 371.942 74.666,372.030 74.775,371.883 75.322 M62.771 95.625 C 59.408 98.830,56.683 100.285,50.638 102.104 C 42.312 104.609,39.375 107.194,35.227 115.668 C 33.061 120.093,32.911 119.835,37.643 119.839 C 48.928 119.847,55.392 114.184,62.768 97.825 C 64.246 94.547,64.444 94.097,64.401 94.105 C 64.378 94.109,63.644 94.793,62.771 95.625 M336.263 94.161 C 336.263 94.347,339.145 100.575,340.280 102.840 C 346.475 115.209,352.626 119.730,363.279 119.746 C 367.572 119.752,367.324 119.865,366.636 118.215 C 362.491 108.265,358.855 104.758,349.900 102.076 C 344.222 100.375,341.251 98.783,337.977 95.684 C 337.034 94.792,336.263 94.107,336.263 94.161 M12.891 111.535 C 4.407 135.825,6.176 152.727,18.148 161.748 C 19.583 162.829,22.871 164.849,22.995 164.725 C 23.159 164.561,25.229 158.111,25.634 156.502 C 28.145 146.527,27.554 142.638,21.767 131.025 C 17.665 122.796,16.239 119.134,14.567 112.542 L 13.714 109.178 12.891 111.535 M386.174 112.250 C 384.579 118.694,382.955 122.860,378.799 131.177 C 372.562 143.658,372.194 148.480,376.488 161.385 C 377.738 165.139,377.535 164.893,378.799 164.177 C 394.284 155.404,397.217 136.916,387.345 110.297 L 386.933 109.186 386.174 112.250 M55.611 124.419 C 52.398 128.949,49.502 131.340,43.409 134.490 C 36.359 138.136,34.051 140.458,31.460 146.515 C 30.401 148.991,28.407 155.848,28.407 157.012 C 28.407 157.341,32.371 156.771,35.116 156.046 C 44.379 153.602,49.938 147.358,53.616 135.265 C 54.317 132.960,56.846 123.009,56.754 122.918 C 56.729 122.892,56.215 123.568,55.611 124.419 M343.897 122.964 C 343.898 123.308,346.058 131.869,346.749 134.265 C 350.965 148.876,357.759 155.426,370.301 156.969 C 372.508 157.241,372.357 157.424,371.844 155.100 C 369.281 143.492,366.236 139.175,357.345 134.544 C 350.939 131.207,348.107 128.851,344.812 124.118 C 344.309 123.394,343.897 122.875,343.897 122.964 M4.193 149.864 C 4.142 150.195,4.058 150.746,4.006 151.087 C 3.954 151.429,3.794 152.827,3.649 154.194 C 0.480 184.110,7.410 201.142,25.102 206.923 C 27.387 207.670,27.129 207.811,27.423 205.656 C 28.398 198.525,28.392 191.655,27.407 187.339 C 26.207 182.084,24.651 179.378,18.185 171.303 C 11.598 163.076,8.627 158.505,5.403 151.640 C 4.356 149.411,4.280 149.300,4.193 149.864 M394.825 152.467 C 391.404 159.477,388.304 164.161,381.824 172.108 C 374.124 181.552,372.597 185.428,372.587 195.561 C 372.583 200.473,373.131 207.012,373.586 207.467 C 373.753 207.634,377.514 206.274,379.570 205.303 C 394.269 198.358,400.025 181.353,396.959 153.928 C 396.368 148.644,396.610 148.810,394.825 152.467 M54.035 154.418 C 52.784 159.204,48.238 165.206,42.166 170.089 C 35.351 175.570,33.052 179.417,31.878 187.306 C 31.346 190.874,31.025 197.958,31.394 197.958 C 32.271 197.958,37.784 195.679,39.880 194.450 C 50.104 188.454,53.535 179.890,54.126 158.899 C 54.255 154.308,54.242 153.628,54.035 154.418 M346.487 157.213 C 347.127 179.479,350.069 187.582,359.787 193.845 C 362.057 195.309,368.174 197.958,369.282 197.958 C 369.696 197.958,369.271 190.236,368.651 186.507 C 367.431 179.161,365.049 175.347,358.283 169.899 C 352.673 165.383,349.934 162.015,347.646 156.819 C 347.183 155.766,346.711 154.705,346.599 154.461 C 346.440 154.115,346.415 154.721,346.487 157.213 M341.525 191.126 C 338.516 204.671,337.793 209.378,337.792 215.446 C 337.790 227.526,342.500 235.770,353.294 242.577 C 354.814 243.536,354.835 243.541,354.948 243.009 C 354.995 242.790,355.330 241.252,355.693 239.592 C 358.700 225.823,357.652 219.907,350.511 210.350 C 345.113 203.126,343.221 198.927,342.153 191.796 L 341.840 189.708 341.525 191.126 M58.708 190.502 C 58.646 190.843,58.471 191.882,58.320 192.810 C 57.277 199.222,55.417 203.229,50.244 210.209 C 43.489 219.320,42.299 224.387,44.215 235.878 C 44.576 238.045,45.729 243.213,45.886 243.370 C 46.033 243.518,49.646 241.124,51.454 239.681 C 61.866 231.370,64.767 221.105,61.689 203.462 C 61.292 201.186,59.691 193.523,59.055 190.857 L 58.823 189.880 58.708 190.502 M396.542 198.641 C 391.754 205.056,385.178 211.281,375.322 218.729 C 369.954 222.785,367.926 224.508,366.129 226.542 C 360.936 232.418,358.025 240.822,356.754 253.601 L 356.633 254.828 358.678 254.711 C 379.882 253.500,392.387 235.890,396.632 201.266 C 397.038 197.956,397.039 197.976,396.542 198.641 M3.819 199.467 C 4.014 201.653,4.797 206.999,5.416 210.386 C 10.453 237.919,21.494 252.148,39.645 254.500 C 41.503 254.741,44.030 254.866,44.030 254.717 C 44.030 253.413,42.924 246.290,42.233 243.142 C 39.681 231.521,36.532 227.089,24.323 217.934 C 16.126 211.788,11.047 207.077,6.036 200.976 C 5.206 199.966,4.343 198.933,4.117 198.682 L 3.707 198.225 3.819 199.467 M72.686 224.945 C 73.984 233.117,73.147 239.022,69.326 248.646 C 66.630 255.438,66.045 257.797,66.045 261.874 C 66.045 267.833,68.268 274.760,72.924 283.311 C 74.334 285.900,74.044 285.837,75.784 283.933 C 86.129 272.615,88.340 261.360,83.134 246.516 C 81.509 241.882,75.634 229.397,73.067 225.122 L 72.587 224.323 72.686 224.945 M326.926 226.320 C 313.613 251.137,311.653 263.089,318.811 275.796 C 320.524 278.836,325.353 285.024,326.348 285.453 C 326.966 285.719,332.087 274.553,333.323 270.246 C 335.543 262.511,335.132 258.294,331.186 248.356 C 327.732 239.657,326.766 233.356,327.779 226.143 C 327.912 225.191,328.005 224.412,327.986 224.412 C 327.966 224.412,327.489 225.271,326.926 226.320 M17.210 252.508 C 31.801 288.503,49.840 303.378,73.324 298.779 C 74.350 298.578,75.243 298.361,75.309 298.297 C 75.604 298.012,71.583 288.717,69.604 285.109 C 63.700 274.345,59.137 270.607,44.918 264.886 C 32.559 259.914,24.689 255.699,17.365 250.129 C 16.614 249.557,15.960 249.090,15.912 249.090 C 15.864 249.090,16.448 250.628,17.210 252.508 M383.221 250.182 C 375.729 255.811,367.874 260.008,355.667 264.904 C 342.899 270.026,338.687 273.128,333.247 281.412 C 331.063 284.737,325.255 296.961,325.255 298.232 C 325.255 298.392,328.447 299.037,330.670 299.326 C 351.315 302.006,368.083 287.981,381.710 256.636 C 382.909 253.876,384.762 249.239,384.693 249.170 C 384.664 249.141,384.001 249.596,383.221 250.182 M96.697 257.124 C 100.290 265.422,101.136 271.817,100.019 282.252 C 99.432 287.729,99.373 292.315,99.852 294.984 C 101.166 302.293,106.248 310.417,114.823 318.916 L 116.578 320.655 118.015 317.673 C 126.884 299.278,123.366 284.969,105.105 265.158 C 102.794 262.649,96.182 255.659,96.122 255.659 C 96.089 255.659,96.349 256.318,96.697 257.124 M301.465 258.809 C 294.412 266.237,290.066 271.239,286.970 275.494 C 276.606 289.737,275.307 302.501,282.668 317.789 L 284.074 320.708 285.147 319.653 C 292.436 312.480,297.926 304.640,299.874 298.624 C 301.231 294.433,301.447 289.288,300.568 282.113 C 299.432 272.843,300.381 265.462,303.712 257.664 C 304.149 256.640,304.482 255.784,304.451 255.763 C 304.420 255.742,303.076 257.112,301.465 258.809 M128.362 280.617 C 128.362 280.667,128.864 281.283,129.476 281.987 C 135.993 289.472,139.007 296.149,141.317 308.211 C 143.719 320.750,147.018 326.544,155.615 333.320 C 160.333 337.039,170.993 343.445,171.220 342.698 C 173.141 336.371,172.851 324.763,170.599 317.896 C 166.521 305.463,157.592 297.116,134.132 283.807 C 131.593 282.366,129.257 281.039,128.939 280.857 C 128.622 280.676,128.362 280.567,128.362 280.617 M267.554 283.202 C 238.873 299.483,229.966 309.288,228.300 326.409 C 227.838 331.162,228.822 343.046,229.664 342.891 C 230.375 342.759,238.246 338.143,241.190 336.131 C 252.815 328.183,256.462 322.537,259.394 307.945 C 261.834 295.800,264.564 289.712,270.898 282.290 C 272.340 280.601,272.410 280.514,272.331 280.523 C 272.292 280.528,270.142 281.733,267.554 283.202 M43.250 299.734 C 43.531 300.220,47.606 305.390,49.432 307.576 C 74.808 337.962,97.569 346.669,120.240 334.662 C 121.932 333.766,121.958 334.014,119.888 331.320 C 112.222 321.346,105.434 315.137,98.579 311.829 C 93.654 309.452,89.617 308.568,78.384 307.406 C 63.988 305.916,53.824 303.676,44.246 299.883 C 43.149 299.449,43.079 299.439,43.250 299.734 M355.437 300.233 C 345.436 303.997,336.396 305.953,322.237 307.416 C 303.358 309.367,296.418 312.776,285.559 325.433 C 282.863 328.575,278.809 333.737,278.944 333.856 C 280.496 335.221,288.607 338.342,292.765 339.173 C 312.403 343.102,333.390 330.764,355.419 302.338 C 356.434 301.028,357.343 299.856,357.438 299.734 C 357.691 299.410,357.496 299.458,355.437 300.233 M140.435 339.115 C 137.322 339.309,134.158 339.804,126.852 341.239 C 111.364 344.282,102.802 345.093,91.283 344.609 C 88.613 344.496,86.401 344.432,86.368 344.465 C 86.258 344.575,92.400 348.819,96.638 351.563 C 128.246 372.025,152.806 375.857,171.691 363.273 C 174.913 361.126,180.918 355.986,180.913 355.379 C 180.912 355.265,179.773 354.363,178.383 353.375 C 162.894 342.370,152.264 338.376,140.435 339.115 M254.683 339.109 C 245.203 339.708,235.405 344.036,222.111 353.496 L 219.544 355.323 221.736 357.421 C 240.783 375.644,265.420 374.853,298.624 354.951 C 303.530 352.010,314.405 344.705,314.193 344.493 C 314.147 344.447,311.964 344.501,309.341 344.612 C 298.264 345.080,289.268 344.260,275.189 341.499 C 263.623 339.231,259.801 338.786,254.683 339.109 M187.412 357.769 C 187.880 358.294,192.870 362.668,195.073 364.486 C 196.074 365.312,196.892 366.031,196.892 366.083 C 196.889 366.257,177.459 375.580,168.575 379.670 C 145.164 390.448,131.421 395.594,124.796 396.063 L 123.093 396.183 125.461 405.948 C 126.763 411.318,128.365 417.909,129.021 420.595 L 130.213 425.477 130.356 424.234 C 131.368 415.398,137.270 409.924,161.562 395.293 C 179.972 384.205,188.390 378.697,197.557 371.742 C 199.338 370.391,200.837 369.285,200.888 369.285 C 200.939 369.285,202.557 370.471,204.485 371.919 C 214.039 379.100,221.864 384.218,239.680 394.939 C 256.214 404.888,260.833 408.120,265.601 413.074 C 269.287 416.903,271.419 421.085,271.471 424.589 C 271.492 426.017,271.604 425.600,275.190 410.741 C 277.051 403.027,278.617 396.576,278.669 396.405 C 278.752 396.132,278.628 396.094,277.642 396.094 C 270.282 396.092,248.522 387.331,213.021 370.075 C 209.082 368.160,205.636 366.511,205.363 366.410 C 204.700 366.166,204.638 366.242,207.368 363.953 C 208.686 362.848,210.714 361.099,211.874 360.066 C 213.034 359.034,214.192 358.010,214.448 357.791 C 215.053 357.273,212.935 358.242,207.279 361.068 C 204.936 362.239,202.528 363.415,201.930 363.682 L 200.841 364.166 193.958 360.779 C 190.121 358.890,187.224 357.559,187.412 357.769 " stroke="none" fill="#146c44" fill-rule="evenodd"></path><path id="path2" d="" stroke="none" fill="#0c8878" fill-rule="evenodd"></path><path id="path3" d="" stroke="none" fill="#0c7858" fill-rule="evenodd"></path><path id="path4" d="" stroke="none" fill="#0c7c44" fill-rule="evenodd"></path></g></svg>